/* XPM */
static char * bottom_right_active_xpm[] = {
"8 8 3 1",
" 	c None",
".	c #373330",
"+	c #E2EEC8",
"    ...+",
"    ...+",
"    ...+",
"    ...+",
".......+",
".......+",
".......+",
"++++++++"};
