/* XPM */
static char * bottom_left_active_xpm[] = {
"8 8 3 1",
" 	c None",
".	c #E2EEC8",
"+	c #373330",
".+++    ",
".+++    ",
".+++    ",
".+++    ",
".+++++++",
".+++++++",
".+++++++",
"........"};
