/* XPM */
static char * menu_pressed_xpm[] = {
"16 16 4 1",
" 	c None",
".	c #474340",
"+	c #373330",
"@	c #C5C7CB",
"................",
"................",
"................",
"................",
"................",
"................",
"++++++++++++++++",
"+++++@@@@@@@++++",
"++++++@@@@@+++++",
"+++++++@@@++++++",
"++++++++@+++++++",
"++++++++++++++++",
"++++++++++++++++",
"++++++++++++++++",
"++++++++++++++++",
"++++++++++++++++"};
