/* XPM */
static char * right_active_xpm[] = {
"4 8 3 1",
" 	c None",
".	c #373330",
"+	c #E2EEC8",
"...+",
"...+",
"...+",
"...+",
"...+",
"...+",
"...+",
"...+"};
