/* XPM */
static char * shade_xpm[] = {
"16 16 3 1",
" 	c None",
".	c #373330",
"+	c #D3CAAA",
"................",
"................",
"................",
"................",
"................",
"................",
"................",
"........+.......",
".......+++......",
"......+++++.....",
".....+++++++....",
"................",
"................",
"................",
"................",
"................"};
