/* XPM */
static char * stick_pressed_xpm[] = {
"16 16 4 1",
" 	c None",
".	c #474340",
"+	c #C5C7CB",
"@	c #373330",
"................",
"................",
"................",
"................",
"........+.......",
".......+++......",
"@@@@@@+++++@@@@@",
"@@@@@+++++++@@@@",
"@@@@@@@@@@@@@@@@",
"@@@@@+++++++@@@@",
"@@@@@+++++++@@@@",
"@@@@@@@@@@@@@@@@",
"@@@@@@@@@@@@@@@@",
"@@@@@@@@@@@@@@@@",
"@@@@@@@@@@@@@@@@",
"@@@@@@@@@@@@@@@@"};
