/* XPM */
static char * title_5_active_xpm[] = {
"2 29 4 1",
" 	c None",
".	c #E2EEC8",
"+	c #474340",
"@	c #373330",
"..",
"++",
"++",
"++",
"++",
"++",
"++",
"++",
"++",
"++",
"++",
"++",
"++",
"@@",
"@@",
"@@",
"@@",
"@@",
"@@",
"@@",
"@@",
"@@",
"@@",
"@@",
"@@",
"@@",
"@@",
"@@",
"@@"};
