/* XPM */
static char * title_1_active_xpm[] = {
"2 29 3 1",
" 	c None",
".	c #D3CAAA",
"+	c #373330",
"..",
"++",
"++",
"++",
"++",
"++",
"++",
"++",
"++",
"++",
"++",
"++",
"++",
"++",
"++",
"++",
"++",
"++",
"++",
"++",
"++",
"++",
"++",
"++",
"++",
"++",
"++",
"++",
"++"};
