/* XPM */
static char * top_right_active_xpm[] = {
"4 29 4 1",
" 	c None",
".	c #E2EEC8",
"+	c #474340",
"@	c #373330",
"....",
"+++.",
"+++.",
"+++.",
"+++.",
"+++.",
"+++.",
"+++.",
"+++.",
"+++.",
"+++.",
"+++.",
"+++.",
"@@@.",
"@@@.",
"@@@.",
"@@@.",
"@@@.",
"@@@.",
"@@@.",
"@@@.",
"@@@.",
"@@@.",
"@@@.",
"@@@.",
"@@@.",
"@@@.",
"@@@.",
"@@@."};
