/* XPM */
static char * top_left_active_xpm[] = {
"17 29 3 1",
" 	c None",
".	c #D3CAAA",
"+	c #373330",
"               ..",
"           ....++",
"         ..++++++",
"        .++++++++",
"       .+++++++++",
"      .++++++++++",
"     .+++++++++++",
"    .++++++++++++",
"   .+++++++++++++",
"  .++++++++++++++",
"  .++++++++++++++",
" .+++++++++++++++",
" .+++++++++++++++",
" .+++++++++++++++",
" .+++++++++++++++",
".++++++++++++++++",
".++++++++++++++++",
".++++++++++++++++",
".++++++++++++++++",
".++++++++++++++++",
".++++++++++++++++",
".++++++++++++++++",
".++++++++++++++++",
".++++++++++++++++",
".++++++++++++++++",
".++++++++++++++++",
".++++++++++++++++",
".++++++++++++++++",
".++++++++++++++++"};
