/* XPM */
static char * top_right_inactive_xpm[] = {
"4 29 3 1",
" 	c None",
".	c #D3CAAA",
"+	c #373330",
"....",
"+++.",
"+++.",
"+++.",
"+++.",
"+++.",
"+++.",
"+++.",
"+++.",
"+++.",
"+++.",
"+++.",
"+++.",
"+++.",
"+++.",
"+++.",
"+++.",
"+++.",
"+++.",
"+++.",
"+++.",
"+++.",
"+++.",
"+++.",
"+++.",
"+++.",
"+++.",
"+++.",
"+++."};
