/* XPM */
static char * top_left_active_xpm[] = {
"17 29 8 1",
" 	c None",
".	c #e2eec8",
"+	c #474340",
"@	c #373330",
"#	c #3B3734",
"$	c #413D3A",
"%	c #383431",
"&	c #3C3835",
"               ..",
"           ....++",
"         ..++++++",
"        .++++++++",
"       .+++++++++",
"      .@@#$++++++",
"     .@@@@@@%&$++",
"    .@@@@@@@@@@@%",
"   .@@@@@@@@@@@@@",
"  .@@@@@@@@@@@@@@",
"  .@@@@@@@@@@@@@@",
" .@@@@@@@@@@@@@@@",
" .@@@@@@@@@@@@@@@",
" .@@@@@@@@@@@@@@@",
" .@@@@@@@@@@@@@@@",
".@@@@@@@@@@@@@@@@",
".@@@@@@@@@@@@@@@@",
".@@@@@@@@@@@@@@@@",
".@@@@@@@@@@@@@@@@",
".@@@@@@@@@@@@@@@@",
".@@@@@@@@@@@@@@@@",
".@@@@@@@@@@@@@@@@",
".@@@@@@@@@@@@@@@@",
".@@@@@@@@@@@@@@@@",
".@@@@@@@@@@@@@@@@",
".@@@@@@@@@@@@@@@@",
".@@@@@@@@@@@@@@@@",
".@@@@@@@@@@@@@@@@",
".@@@@@@@@@@@@@@@@"};
