/* XPM */
static char * bottom_left_inactive_xpm[] = {
"24 8 4 1",
" 	c None",
"+	c #00ff00 s inactive_color_2",
".	c #F6F6F6 s inactive_color_1",
"x	c #777777",
"x.......xxxxxxxxxxxxxxxx",
"x........xxxxxxxxxxxxxxx",
"x.......................",
"x.......................",
"x.......................",
"x.......................",
"x.......................",
"xxxxxxxxxxxxxxxxxxxxxxxx"};
