/* XPM */
static char * bottom_inactive_xpm[] = {
"5 8 4 1",
" 	c None",
".	c #F6F6F6 s inactive_color_2",
"+	c #00ff00 s inactive_color_1",
"x	c #777777",
"xxxxx",
"xxxxx",
"+++++",
"+++++",
"+++++",
"+++++",
"+++++",
"xxxxx"};
