/* XPM */
static char * hide_active_xpm[] = {
"14 20 4 1",
" 	c None",
".	c #00ff00 s active_color_1",
"+	c #FFFFFF",
"*	c #000000",
"              ",
"..............",
"..............",
"..............",
"..............",
"..............",
"..............",
".***********..",
".*+++++++++**.",
".*+++++++++**.",
".************.",
"..***********.",
"..............",
"..............",
"..............",
"..............",
"..............",
"..............",
"              ",
"              "};
