/* XPM */
static char * left_active_xpm[] = {
"8 5 3 1",
" 	c None",
".	c #00ff00 s active_color_1",
"+	c #000000",
"+......+",
"+......+",
"+......+",
"+......+",
"+......+"};
