/* XPM */
static char * maximize_inactive_xpm[] = {
"14 20 4 1",
" 	c None",
".	c #00ff00 s inactive_color_1",
"*	c #777777",
"+	c #ffffff",
"              ",
"..............",
"..............",
"..............",
".....****.....",
".....*++**....",
".....*++**....",
"..****++****..",
"..*++++++++**.",
"..*++++++++**.",
"..****++*****.",
".....*++*****.",
".....*++**....",
".....*****....",
"......****....",
"..............",
"..............",
"..............",
"              ",
"              "};
