/* XPM */
static char * right_inactive_xpm[] = {
"8 5 3 1",
" 	c None",
".	c #00ff00 s inactive_color_1",
"+	c #777777",
"++.....+",
"++.....+",
"++.....+",
"++.....+",
"++.....+"};
