/* XPM */
static char * shade_toggled_pressed_xpm[] = {
"15 20 4 1",
" 	c None",
".	c #00ff00 s active_color_1",
"*	c #000000",
"+	c #FFFFFF",
"               ",
"...............",
"...............",
"...............",
"...............",
"...**......**..",
"..****....****.",
".**++**..**++**",
".**+++****+++**",
"..**+++**+++**.",
"...**++++++**..",
"....**++++**...",
".....**++**....",
"......****.....",
".......**......",
"...............",
"...............",
"...............",
"...............",
"               ",
"               "};
