/* XPM */
static char * shade_toggled_inactive_xpm[] = {
"15 20 4 1",
" 	c None",
".	c #00ff00 s inactive_color_1",
"*	c #777777",
"+	c #ffffff",
"               ",
"...............",
"...............",
"...............",
"..**......**...",
".****....****..",
"**++**..**++**.",
"**+++****+++***",
".**+++**+++***.",
"..**++++++***..",
"...**++++***...",
"....**++***....",
".....*****.....",
"......***......",
".......*.......",
"...............",
"...............",
"...............",
"               ",
"               "};
