/* XPM */
static char * title_1_inactive_xpm[] = {
"5 20 3 1",
" 	c None",
".	c #00ff00 s inactive_color_1",
"+	c #777777",
"+++++",
".....",
".....",
".....",
".....",
".....",
".....",
".....",
".....",
".....",
".....",
".....",
".....",
".....",
".....",
".....",
".....",
".....",
".....",
"+++++"};