/* XPM */
static char * top_left_inactive_xpm[] = {
"8 20 3 1",
" 	c None",
".	c #00ff00 s inactive_color_1",
"+	c #777777",
"++++++++",
"+.......",
"+.......",
"+.......",
"+.......",
"+.......",
"+.......",
"+.......",
"+.......",
"+.......",
"+.......",
"+.......",
"+.......",
"+.......",
"+.......",
"+.......",
"+.......",
"+.......",
"+.......",
"+......+"};
