/* XPM */
static char * top_left_active_xpm[] = {
"8 20 3 1",
" 	c None",
".	c #00ff00 s active_color_1",
"+	c #000000",
"++++++++",
"+.......",
"+.......",
"+.......",
"+.......",
"+.......",
"+.......",
"+.......",
"+.......",
"+.......",
"+.......",
"+.......",
"+.......",
"+.......",
"+.......",
"+.......",
"+.......",
"+.......",
"+.......",
"+......+"};
