<?xml version="1.0" encoding="UTF-8" standalone="no"?>
<!-- Created with Inkscape (http://www.inkscape.org/) -->
<svg
   xmlns:dc="http://purl.org/dc/elements/1.1/"
   xmlns:cc="http://creativecommons.org/ns#"
   xmlns:rdf="http://www.w3.org/1999/02/22-rdf-syntax-ns#"
   xmlns:svg="http://www.w3.org/2000/svg"
   xmlns="http://www.w3.org/2000/svg"
   xmlns:xlink="http://www.w3.org/1999/xlink"
   xmlns:sodipodi="http://sodipodi.sourceforge.net/DTD/sodipodi-0.dtd"
   xmlns:inkscape="http://www.inkscape.org/namespaces/inkscape"
   width="560"
   height="420"
   id="svg2"
   sodipodi:version="0.32"
   inkscape:version="0.46"
   version="1.0"
   sodipodi:docname="SRC_Xubuntu_Splash.svg"
   inkscape:output_extension="org.inkscape.output.svg.inkscape"
   inkscape:export-filename="/home/ryan/Desktop/Xubuntu_XFCE_Splash/Xubuntu_Splash_1-3.png"
   inkscape:export-xdpi="96.428574"
   inkscape:export-ydpi="96.428574">
  <defs
     id="defs4">
    <linearGradient
       id="linearGradient3319">
      <stop
         style="stop-color:#b4b4b4;stop-opacity:1"
         offset="0"
         id="stop3329" />
      <stop
         id="stop3335"
         offset="0.03392789"
         style="stop-color:#e6e6e6;stop-opacity:1" />
      <stop
         style="stop-color:#ffffff;stop-opacity:1"
         offset="0.46171448"
         id="stop3337" />
      <stop
         id="stop3333"
         offset="0.65478092"
         style="stop-color:#e6e6e6;stop-opacity:1" />
      <stop
         style="stop-color:#91aac5;stop-opacity:1"
         offset="0.84601218"
         id="stop3325" />
      <stop
         id="stop3323"
         offset="1"
         style="stop-color:#33394d;stop-opacity:1" />
    </linearGradient>
    <linearGradient
       id="linearGradient3284">
      <stop
         id="stop3286"
         offset="0"
         style="stop-color:#000000;stop-opacity:1" />
      <stop
         style="stop-color:#33394d;stop-opacity:1"
         offset="0.34723938"
         id="stop3292" />
      <stop
         style="stop-color:#606a87;stop-opacity:1"
         offset="0.61738718"
         id="stop3290" />
      <stop
         id="stop3288"
         offset="1"
         style="stop-color:#aadeff;stop-opacity:1" />
    </linearGradient>
    <linearGradient
       id="linearGradient3276">
      <stop
         id="stop3278"
         offset="0"
         style="stop-color:#33394d;stop-opacity:1" />
      <stop
         style="stop-color:#606a87;stop-opacity:1"
         offset="0.29999998"
         id="stop3257" />
      <stop
         id="stop3280"
         offset="1"
         style="stop-color:#e6e6e6;stop-opacity:1" />
    </linearGradient>
    <linearGradient
       id="linearGradient3268">
      <stop
         style="stop-color:#818181;stop-opacity:1"
         offset="0"
         id="stop3270" />
      <stop
         style="stop-color:#e6e6e6;stop-opacity:1"
         offset="1"
         id="stop3272" />
    </linearGradient>
    <linearGradient
       id="linearGradient3260">
      <stop
         style="stop-color:#c5c5c5;stop-opacity:1;"
         offset="0"
         id="stop3262" />
      <stop
         style="stop-color:#eeeeee;stop-opacity:0;"
         offset="1"
         id="stop3264" />
    </linearGradient>
    <linearGradient
       inkscape:collect="always"
       id="linearGradient3214">
      <stop
         style="stop-color:#fdd99b;stop-opacity:1;"
         offset="0"
         id="stop3216" />
      <stop
         style="stop-color:#fdd99b;stop-opacity:0;"
         offset="1"
         id="stop3218" />
    </linearGradient>
    <linearGradient
       id="linearGradient3206">
      <stop
         style="stop-color:#ffff99;stop-opacity:1;"
         offset="0"
         id="stop3208" />
      <stop
         style="stop-color:#565248;stop-opacity:1"
         offset="1"
         id="stop3210" />
    </linearGradient>
    <inkscape:perspective
       sodipodi:type="inkscape:persp3d"
       inkscape:vp_x="0 : 526.18109 : 1"
       inkscape:vp_y="0 : 1000 : 0"
       inkscape:vp_z="744.09448 : 526.18109 : 1"
       inkscape:persp3d-origin="372.04724 : 350.78739 : 1"
       id="perspective10" />
    <linearGradient
       inkscape:collect="always"
       xlink:href="#linearGradient3214"
       id="linearGradient3220"
       x1="133.34013"
       y1="-0.11173"
       x2="133.34013"
       y2="210.00972"
       gradientUnits="userSpaceOnUse" />
    <linearGradient
       inkscape:collect="always"
       xlink:href="#linearGradient3214"
       id="linearGradient3237"
       gradientUnits="userSpaceOnUse"
       x1="133.34013"
       y1="-0.11173"
       x2="133.34013"
       y2="210.00972" />
    <linearGradient
       inkscape:collect="always"
       xlink:href="#linearGradient3214"
       id="linearGradient3246"
       gradientUnits="userSpaceOnUse"
       x1="133.34013"
       y1="-0.11173"
       x2="133.34013"
       y2="210.00972" />
    <linearGradient
       inkscape:collect="always"
       xlink:href="#linearGradient3214"
       id="linearGradient3255"
       gradientUnits="userSpaceOnUse"
       x1="133.34013"
       y1="-0.11173"
       x2="133.34013"
       y2="210.00972" />
    <filter
       inkscape:collect="always"
       id="filter3241">
      <feGaussianBlur
         inkscape:collect="always"
         stdDeviation="0.93465665"
         id="feGaussianBlur3243" />
    </filter>
    <filter
       inkscape:collect="always"
       id="filter3378">
      <feGaussianBlur
         inkscape:collect="always"
         stdDeviation="0.96541645"
         id="feGaussianBlur3380" />
    </filter>
    <filter
       inkscape:collect="always"
       id="filter3420">
      <feGaussianBlur
         inkscape:collect="always"
         stdDeviation="1.0912028"
         id="feGaussianBlur3422" />
    </filter>
    <linearGradient
       inkscape:collect="always"
       xlink:href="#linearGradient3284"
       id="linearGradient3427"
       gradientUnits="userSpaceOnUse"
       x1="132.83505"
       y1="172.75261"
       x2="132.83505"
       y2="127.80122"
       gradientTransform="matrix(1.9801653,0,0,1.9995815,3.0845603,0.3495952)" />
    <inkscape:perspective
       id="perspective3538"
       inkscape:persp3d-origin="372.04724 : 350.78739 : 1"
       inkscape:vp_z="744.09448 : 526.18109 : 1"
       inkscape:vp_y="0 : 1000 : 0"
       inkscape:vp_x="0 : 526.18109 : 1"
       sodipodi:type="inkscape:persp3d" />
    <inkscape:perspective
       id="perspective3609"
       inkscape:persp3d-origin="98.887497 : 30.629168 : 1"
       inkscape:vp_z="197.77499 : 45.943752 : 1"
       inkscape:vp_y="0 : 1000 : 0"
       inkscape:vp_x="0 : 45.943752 : 1"
       sodipodi:type="inkscape:persp3d" />
    <filter
       inkscape:collect="always"
       id="filter3841">
      <feGaussianBlur
         inkscape:collect="always"
         stdDeviation="0.29364841"
         id="feGaussianBlur3843" />
    </filter>
    <filter
       inkscape:collect="always"
       id="filter3845">
      <feGaussianBlur
         inkscape:collect="always"
         stdDeviation="0.29364841"
         id="feGaussianBlur3847" />
    </filter>
    <filter
       inkscape:collect="always"
       id="filter3849">
      <feGaussianBlur
         inkscape:collect="always"
         stdDeviation="0.29364841"
         id="feGaussianBlur3851" />
    </filter>
    <filter
       inkscape:collect="always"
       id="filter3853">
      <feGaussianBlur
         inkscape:collect="always"
         stdDeviation="0.29364841"
         id="feGaussianBlur3855" />
    </filter>
    <filter
       inkscape:collect="always"
       id="filter3869">
      <feGaussianBlur
         inkscape:collect="always"
         stdDeviation="0.42988746"
         id="feGaussianBlur3871" />
    </filter>
    <linearGradient
       inkscape:collect="always"
       xlink:href="#linearGradient3319"
       id="linearGradient3317"
       gradientUnits="userSpaceOnUse"
       gradientTransform="matrix(2.0002093,0,0,1.999467,-5.4886676e-2,0.3616299)"
       x1="116.06754"
       y1="210.50024"
       x2="116.06754"
       y2="-15.824927" />
  </defs>
  <sodipodi:namedview
     id="base"
     pagecolor="#ffffff"
     bordercolor="#666666"
     borderopacity="1.0"
     gridtolerance="10000"
     guidetolerance="10"
     objecttolerance="10"
     inkscape:pageopacity="0.0"
     inkscape:pageshadow="2"
     inkscape:zoom="0.9899495"
     inkscape:cx="283.67877"
     inkscape:cy="215.01325"
     inkscape:document-units="px"
     inkscape:current-layer="layer6"
     showgrid="false"
     showguides="false"
     inkscape:guide-bbox="true"
     inkscape:snap-global="true"
     inkscape:window-width="1439"
     inkscape:window-height="813"
     inkscape:window-x="0"
     inkscape:window-y="33">
    <sodipodi:guide
       orientation="0,1"
       position="94.449263,140"
       id="guide2383" />
    <sodipodi:guide
       orientation="0,1"
       position="-17.172593,70"
       id="guide2385" />
    <sodipodi:guide
       orientation="1,0"
       position="90,174.25131"
       id="guide2387" />
    <sodipodi:guide
       orientation="1,0"
       position="180,157.07872"
       id="guide2389" />
    <sodipodi:guide
       orientation="1,0"
       position="0,169.70563"
       id="guide2391" />
    <sodipodi:guide
       orientation="0,1"
       position="-29.7995,210.11173"
       id="guide2393" />
    <sodipodi:guide
       orientation="1,0"
       position="279.81226,158.59395"
       id="guide2395" />
    <sodipodi:guide
       orientation="0,1"
       position="242.94169,0"
       id="guide2397" />
    <sodipodi:guide
       orientation="1,0"
       position="559.62451,231.32493"
       id="guide3460" />
    <sodipodi:guide
       orientation="0,1"
       position="-75.76144,420"
       id="guide2461" />
  </sodipodi:namedview>
  <metadata
     id="metadata7">
    <rdf:RDF>
      <cc:Work
         rdf:about="">
        <dc:format>image/svg+xml</dc:format>
        <dc:type
           rdf:resource="http://purl.org/dc/dcmitype/StillImage" />
      </cc:Work>
    </rdf:RDF>
  </metadata>
  <g
     inkscape:groupmode="layer"
     id="layer6"
     inkscape:label="Grad_Bottom"
     sodipodi:insensitive="true"
     style="display:inline">
    <path
       style="opacity:1;fill:url(#linearGradient3317);fill-opacity:1;fill-rule:nonzero;stroke:#000000;stroke-width:1.99983811;stroke-linecap:round;stroke-linejoin:round;stroke-miterlimit:4;stroke-dasharray:none;stroke-opacity:1;display:inline"
       d="M 135.09375,288.21875 C 61.603649,288.78286 7.1118109,312.07008 -0.0625,315.28125 L -0.0625,420.25 L 559.625,420.25 L 559.625,317.03125 C 548.56513,321.54538 406.01621,377.4608 271.71875,316.59375 C 223.65993,294.81227 176.42754,287.90147 135.09375,288.21875 z"
       id="rect3251" />
  </g>
  <g
     inkscape:groupmode="layer"
     id="layer3"
     style="display:inline"
     inkscape:label="Wave"
     sodipodi:insensitive="true">
    <path
       id="path3370"
       d="M 67.537379,130.77805 C 28.087844,131.08707 -0.54771196,144.54993 -0.54771197,144.54993 L -27.838017,144.96726 L -27.838017,160.50665 L -0.54771197,160.26116 C -0.54771195,160.26116 65.976108,128.98788 135.87255,160.67849 C 205.76899,192.3691 280.35799,160.67849 280.35799,160.67849 L 314.33802,160.67849 L 314.21298,144.96726 L 280.35799,144.96726 C 280.35799,144.96726 205.76899,176.65787 135.87255,144.96726 C 111.84565,134.07361 88.20142,130.61617 67.537379,130.77805 z"
       style="fill:#000000;fill-opacity:1;fill-rule:evenodd;stroke:none;stroke-width:0.88646626px;stroke-linecap:butt;stroke-linejoin:miter;stroke-opacity:1;display:inline;filter:url(#filter3378)"
       transform="matrix(1.9801653,0,0,1.9995815,3.0845603,0.3495952)" />
    <path
       style="fill:url(#linearGradient3427);fill-opacity:1;fill-rule:evenodd;stroke:none;stroke-width:0.88646626px;stroke-linecap:butt;stroke-linejoin:miter;stroke-opacity:1;display:inline"
       d="M 136.81973,256.80127 C 58.703134,257.41918 2.0000004,284.33927 2.0000004,284.33927 L -52.039315,285.17376 L -52.039315,316.24603 L 2.0000004,315.75515 C 2.0000004,315.75515 133.72816,253.22168 272.13467,316.58964 C 410.54119,379.9576 558.23973,316.58964 558.23973,316.58964 L 625.5258,316.58964 L 625.27822,285.17376 L 558.23973,285.17376 C 558.23973,285.17376 410.54119,348.54172 272.13467,285.17376 C 224.55743,263.39102 177.73795,256.47759 136.81973,256.80127 z"
       id="path2399" />
  </g>
  <g
     inkscape:groupmode="layer"
     id="layer2"
     style="display:inline"
     inkscape:label="Gradient_TOP"
     sodipodi:insensitive="true">
    <path
       id="path3396"
       d="M 0,1.441841 L 0,143.34811 C 2.84744,142.05865 30.18878,130.10938 67.53125,129.81687 C 88.195294,129.65499 111.84811,133.11072 135.875,144.00436 C 203.01671,174.44599 274.28313,146.48077 279.8125,144.22311 L 279.8125,1.441841 L 0,1.441841 z"
       style="opacity:1;fill:#33394d;fill-opacity:1;fill-rule:nonzero;stroke:none;stroke-width:0.5;stroke-linecap:round;stroke-linejoin:round;stroke-miterlimit:4;stroke-dasharray:none;stroke-opacity:1;filter:url(#filter3420)"
       transform="matrix(2.0002092,0,0,1.999467,-5.4887103e-2,0.3616299)" />
    <path
       style="opacity:1;fill:url(#linearGradient3317);fill-opacity:1;fill-rule:nonzero;stroke:#000000;stroke-width:1.99983811;stroke-linecap:round;stroke-linejoin:round;stroke-miterlimit:4;stroke-dasharray:none;stroke-opacity:1"
       d="M -0.0625,0.125 L -0.0625,283.875 C 5.6329757,281.29678 60.338498,257.39736 135.03125,256.8125 C 176.36366,256.48884 223.65994,263.40603 271.71875,285.1875 C 406.01621,346.05453 548.5651,290.13912 559.625,285.625 L 559.625,0.125 L -0.0625,0.125 z"
       id="path3343" />
  </g>
  <g
     inkscape:groupmode="layer"
     id="layer4"
     inkscape:label="XFCE Mice"
     style="display:inline"
     sodipodi:insensitive="true">
    <image
       style="display:inline"
       y="474.52985"
       x="46.012321"
       id="image3540"
       height="110.18592"
       width="110.18592"
       sodipodi:absref="/home/ryan/Desktop/xfce_artwork/BIG_XFce_logo.png"
       xlink:href="xfce_artwork/BIG_XFce_logo.png" />
    <g
       style="fill:#000000;fill-opacity:0.5;stroke:none;display:inline"
       id="g3612"
       transform="matrix(0.6452823,-0.1138871,0.1138871,0.6452823,411.48061,256.03444)">
      <path
         id="path12"
         d=""
         style="fill:#7f7f7f;fill-opacity:1;fill-rule:evenodd;stroke:#000000;stroke-width:1px;stroke-linecap:butt;stroke-linejoin:miter;stroke-opacity:1"
         transform="translate(7.99348,-48.3084)" />
      <g
         transform="translate(-136.6543,-342.5193)"
         id="g23">
        <path
           transform="translate(4.86564,17.0296)"
           d="M 143.756,326.774 C 144.294,326.684 157.709,333.765 166.726,336.212 C 182.805,340.321 197.482,352.688 204.576,359.792 C 205.102,360.4 210.669,355.624 216.495,355.968 C 224.453,356.45 249.077,363.374 252.367,358.659 C 254.362,355.891 254.219,352.495 256.708,351.104 C 258.048,350.729 251.727,339.168 258.445,335.464 C 263.235,333.07 267.294,346.473 268.524,347.975 C 269.075,348.647 271.998,348.811 271.652,347.28 C 271.277,345.617 266.549,332.756 272.347,330.598 C 281.764,326.869 280.095,347.054 280.34,347.628 C 280.861,348.85 313.137,349.792 315.094,364.31 C 316.226,372.3 289.236,382.627 286.596,384.467 C 283.957,386.307 284.177,389.25 285.206,391.071 C 286.389,393.046 294.252,399.712 293.2,402.887 C 292.477,404.721 277.802,397.999 276.865,399.412 C 274.728,402.111 287.548,408.867 283.121,413.661 C 281.366,414.809 261.174,405.207 261.225,405.32 C 260.683,405.526 232.693,410.433 211.179,403.929 C 210.421,403.715 197.371,416.535 195.887,416.094 C 193.858,415.35 198.878,404.944 198.32,402.887 C 197.408,401.741 189.069,407.54 188.589,404.625 C 188.015,400.794 195.907,396.39 195.54,393.851 C 193.505,379.427 196.449,371.004 201.448,363.963 C 203.115,361.371 181.856,345.317 166.465,338.981 C 151.075,332.645 142.841,327.275 143.756,326.774 z"
           id="path14"
           style="fill:#020202;fill-opacity:1;fill-rule:evenodd;stroke:#000002;stroke-width:1pt;stroke-linecap:butt;stroke-linejoin:miter;stroke-opacity:1" />
        <path
           d="M 286.934,392.031 C 286.765,391.441 297.437,384.986 298.982,386.47 C 301.763,387.478 287.032,392.78 286.934,392.031 z"
           id="path7"
           style="fill:#ffffff;fill-opacity:1;fill-rule:evenodd;stroke:#000000;stroke-width:0.6pt;stroke-linecap:butt;stroke-linejoin:miter;stroke-opacity:1" />
        <path
           d="M 292.031,397.901 C 291.091,397.333 298.42,388.787 300.218,389.714 C 302.843,392.322 291.908,398.104 292.031,397.901 z"
           id="path8"
           style="fill:#ffffff;fill-opacity:1;fill-rule:evenodd;stroke:#000000;stroke-width:0.6pt;stroke-linecap:butt;stroke-linejoin:miter;stroke-opacity:1" />
        <path
           d="M 320.916,358.358 C 320.025,357.621 313.038,368.645 314.583,369.789 C 315.512,370.484 321.314,358.751 320.916,358.358 z"
           id="path13"
           style="fill:#020202;fill-opacity:1;fill-rule:evenodd;stroke:#000000;stroke-width:0.6pt;stroke-linecap:butt;stroke-linejoin:miter;stroke-opacity:1" />
        <ellipse
           sodipodi:ry="3.398196"
           sodipodi:rx="3.012037"
           sodipodi:cy="374.58655"
           sodipodi:cx="288.86475"
           transform="matrix(0.9253,0,0,0.933788,22.0283,24.352)"
           ry="3.398196"
           rx="3.012037"
           cy="374.58655"
           cx="288.86475"
           id="ellipse17"
           style="fill:#ffffff;fill-opacity:1;fill-rule:evenodd;stroke:#000000;stroke-width:0.6pt;stroke-linecap:butt;stroke-linejoin:miter;stroke-opacity:1" />
        <path
           transform="translate(-8.0321,-1.54463)"
           d="M 320.916,358.358 C 320.475,357.846 318.135,369.726 319.217,370.252 C 320.146,370.947 321.764,358.976 320.916,358.358 z"
           id="path18"
           style="fill:#020202;fill-opacity:1;fill-rule:evenodd;stroke:#000000;stroke-width:0.6pt;stroke-linecap:butt;stroke-linejoin:miter;stroke-opacity:1" />
        <path
           transform="translate(-38.3069,14.983)"
           d="M 321.366,357.908 C 318.595,359.867 322.887,370.953 329.946,364.48 C 324.4,364.643 322.55,363.019 321.366,357.908 z"
           id="path21"
           style="fill:#ffffff;fill-opacity:1;fill-rule:evenodd;stroke:#000000;stroke-width:0.6pt;stroke-linecap:butt;stroke-linejoin:miter;stroke-opacity:1" />
      </g>
    </g>
    <flowRoot
       xml:space="preserve"
       id="flowRoot3695"
       style="font-size:40px;font-style:normal;font-variant:normal;font-weight:normal;font-stretch:normal;fill:#606a87;fill-opacity:1;stroke:#606a87;stroke-width:1.2351135;stroke-linecap:butt;stroke-linejoin:miter;stroke-miterlimit:4;stroke-dasharray:none;stroke-opacity:1;display:inline;filter:url(#filter3869);font-family:DejaVu Serif;-inkscape-font-specification:DejaVu Serif"
       transform="matrix(0.4048211,0,0,0.4048211,143.72825,212.24221)"><flowRegion
         id="flowRegion3697"><rect
           id="rect3699"
           width="967.04987"
           height="321.29004"
           x="176.77669"
           y="442.22336"
           style="fill:#606a87;stroke:#606a87;stroke-width:1.2351135;stroke-miterlimit:4;stroke-dasharray:none;stroke-opacity:1" /></flowRegion><flowPara
         id="flowPara3703"
         style="font-style:normal;font-variant:normal;font-weight:bold;font-stretch:normal;fill:#606a87;stroke:#606a87;stroke-width:1.2351135;stroke-miterlimit:4;stroke-dasharray:none;stroke-opacity:1;font-family:Lucida Sans;-inkscape-font-specification:Lucida Sans Bold">Featuring the lightweight XFCE Desktop</flowPara></flowRoot>  </g>
  <g
     inkscape:label="Xubuntu"
     inkscape:groupmode="layer"
     id="layer1"
     style="display:inline"
     sodipodi:insensitive="true">
    <path
       style="fill:#003366;fill-opacity:1;fill-rule:nonzero;stroke:#003366;stroke-width:0.5;stroke-miterlimit:4;stroke-dasharray:none;stroke-opacity:1;filter:url(#filter3241)"
       d="M -49.15025,31.70102 C -51.90417,31.810433 -54.56537,33.274557 -56.0565,35.85727 C -58.37015,39.864608 -57.0002,44.919294 -52.994,47.23227 C -48.987753,49.545279 -43.9636,48.176593 -41.65025,44.16977 C -39.3369,40.162902 -40.6736,35.139984 -44.6815,32.82602 C -45.935332,32.102114 -47.27998,31.735566 -48.619,31.70102 C -48.803352,31.696265 -48.96665,31.693723 -49.15025,31.70102 z M -67.27525,37.63852 C -72.499926,37.63852 -77.43656,38.826066 -81.869,40.91977 L -75.27525,52.35727 C -72.807925,51.347265 -70.10482,50.794768 -67.27525,50.79477 C -56.576026,50.79477 -47.73496,58.757943 -46.33775,69.07602 L -33.119,69.07602 C -33.7549,61.390218 -36.93377,54.424585 -41.8065,49.01352 C -45.369901,51.805484 -50.39785,52.320771 -54.5565,49.91977 C -58.71803,47.517099 -60.79069,42.873397 -60.15025,38.38852 C -62.445688,37.903418 -64.83607,37.63852 -67.27525,37.63852 z M -86.83775,43.76352 C -92.908248,47.99054 -97.53248,54.149388 -99.869,61.32602 C -95.6637,63.01332 -92.71277,67.11366 -92.71275,71.91977 C -92.712748,76.72566 -95.664,80.85733 -99.869,82.54477 C -97.533,89.72284 -92.90869,95.84812 -86.83775,100.07602 L -80.21275,88.63852 C -85.196296,84.7703 -88.40024,78.71229 -88.40025,71.91977 C -88.40025,65.125988 -85.19787,59.100395 -80.21275,55.23227 L -86.83775,43.76352 z M -161.96275,50.16977 C -162.48275,50.169813 -162.97401,50.246482 -163.494,50.41977 C -164.70733,51.199804 -165.33776,52.283158 -165.33775,53.66977 L -165.33775,62.63852 L -167.40025,62.63852 C -168.78691,62.638551 -169.79359,63.237729 -170.40025,64.45102 C -171.09358,65.49104 -171.09358,66.64397 -170.40025,67.85727 C -169.79359,69.07062 -168.7869,69.63146 -167.40025,69.54477 L -165.33775,69.54477 L -165.33775,83.04477 C -165.33776,85.99141 -164.554,88.38104 -162.994,90.20102 C -161.08736,92.541 -158.21356,93.58602 -154.40025,93.32602 L -151.9315,92.91977 C -150.63153,92.57311 -149.80944,91.75101 -149.46275,90.45102 C -149.11611,89.06437 -149.37737,87.94268 -150.244,87.07602 C -151.28401,86.03604 -152.51361,85.73645 -153.90025,86.16977 C -154.94026,86.51644 -155.80068,86.55477 -156.494,86.29477 C -157.10068,86.20811 -157.51526,85.98519 -157.77525,85.63852 C -158.20859,85.2052 -158.43151,84.34477 -158.4315,83.04477 L -158.4315,69.54477 L -154.15025,69.54477 C -152.76362,69.63146 -151.71859,69.07062 -151.02525,67.85727 C -150.33194,66.64398 -150.33194,65.49104 -151.02525,64.45102 C -151.7186,63.237729 -152.76361,62.63855 -154.15025,62.63852 L -158.4315,62.63852 L -158.4315,53.66977 C -158.34485,52.716487 -158.64443,51.894388 -159.33775,51.20102 C -160.03109,50.507736 -160.92276,50.169813 -161.96275,50.16977 z M -256.994,50.41977 C -258.46733,50.419813 -259.44276,51.126909 -259.96275,52.51352 C -260.22275,52.94689 -260.369,53.469399 -260.369,54.07602 L -260.369,79.13852 C -260.36902,85.2918 -258.24063,89.58688 -253.994,92.01352 C -252.00071,93.05351 -249.98733,93.49935 -247.994,93.32602 L -247.494,93.32602 C -245.41404,93.23936 -243.40067,92.53226 -241.494,91.23227 C -238.37406,89.1523 -236.4686,85.7489 -235.77525,80.98227 C -235.60194,80.02896 -235.52528,78.98394 -235.52525,77.85727 C -235.52527,72.39735 -237.16948,68.28685 -240.46275,65.51352 C -242.71609,63.520237 -245.22071,62.513551 -247.994,62.51352 C -250.07399,62.773548 -251.90278,63.21939 -253.46275,63.82602 L -253.46275,54.07602 C -253.46277,53.03607 -253.80068,52.213972 -254.494,51.60727 C -255.18735,50.82732 -256.04068,50.419813 -256.994,50.41977 z M -302.9315,62.35727 C -303.82526,62.454781 -304.59402,62.8898 -305.244,63.66977 L -312.27525,72.38852 L -319.3065,63.66977 C -319.99984,62.803143 -320.89859,62.388551 -322.02525,62.38852 C -323.49858,62.388551 -324.54359,63.026062 -325.15025,64.32602 C -325.75692,65.62604 -325.57232,66.85564 -324.619,67.98227 L -316.6815,77.85727 L -324.619,87.60727 C -325.48567,88.64726 -325.70857,89.80729 -325.27525,91.10727 C -324.75527,92.32059 -323.85649,93.02769 -322.5565,93.20102 C -321.25653,93.46102 -320.17316,93.05351 -319.3065,92.01352 L -312.27525,83.32602 L -305.244,92.01352 C -304.37737,93.05351 -303.29401,93.46102 -301.994,93.20102 C -300.69405,93.02769 -299.79528,92.32059 -299.27525,91.10727 C -298.84196,89.80729 -299.06488,88.64727 -299.9315,87.60727 L -307.83775,77.85727 L -299.9315,67.98227 C -299.06488,66.94231 -298.84196,65.82062 -299.27525,64.60727 C -299.79528,63.393979 -300.69404,62.648548 -301.994,62.38852 C -302.31901,62.345195 -302.63358,62.324766 -302.9315,62.35727 z M -269.96275,62.35727 C -270.52483,62.35727 -271.1061,62.541872 -271.71275,62.88852 C -272.9261,63.581876 -273.52526,64.626897 -273.52525,66.01352 L -273.52525,80.85727 C -273.52528,81.89727 -273.74818,82.87271 -274.1815,83.82602 L -274.5565,84.48227 C -275.33652,85.78226 -276.82738,86.41978 -278.994,86.41977 C -279.94735,86.41978 -280.80778,86.30477 -281.58775,86.04477 C -282.45443,85.69811 -283.19984,84.95269 -283.8065,83.82602 C -284.23985,83.04604 -284.4315,82.0706 -284.4315,80.85727 L -284.4315,66.01352 C -284.43152,64.973559 -284.80068,64.113126 -285.494,63.41977 C -286.27401,62.726474 -287.13443,62.388551 -288.08775,62.38852 C -288.60776,62.388551 -289.09192,62.503554 -289.52525,62.76352 C -290.82525,63.370211 -291.46274,64.453565 -291.46275,66.01352 L -291.46275,80.85727 C -291.46276,82.93726 -290.94025,84.95771 -289.90025,86.95102 C -289.5536,87.55769 -289.17733,88.11853 -288.744,88.63852 C -286.40404,91.75849 -283.15398,93.32602 -278.994,93.32602 C -277.43404,93.32602 -275.94317,93.06476 -274.5565,92.54477 C -269.70325,90.72479 -267.01401,86.83722 -266.494,80.85727 L -266.494,66.01352 C -266.49404,64.626896 -267.12445,63.581877 -268.33775,62.88852 C -268.85776,62.541872 -269.40067,62.35727 -269.96275,62.35727 z M -208.244,62.35727 C -208.80609,62.35727 -209.38735,62.541872 -209.994,62.88852 C -211.20734,63.581876 -211.83777,64.626897 -211.83775,66.01352 L -211.83775,80.85727 C -211.83777,81.89727 -212.02944,82.87271 -212.46275,83.82602 L -212.869,84.48227 C -213.64901,85.78226 -215.10862,86.41978 -217.27525,86.41977 C -218.22859,86.41978 -219.12027,86.30477 -219.90025,86.04477 C -220.76692,85.69811 -221.4811,84.95269 -222.08775,83.82602 C -222.52109,83.04604 -222.74401,82.0706 -222.744,80.85727 L -222.744,66.01352 C -222.74401,64.973559 -223.08193,64.113126 -223.77525,63.41977 C -224.55525,62.726474 -225.44693,62.388551 -226.40025,62.38852 C -226.92025,62.388551 -227.37318,62.503554 -227.8065,62.76352 C -229.10649,63.370211 -229.77525,64.453565 -229.77525,66.01352 L -229.77525,80.85727 C -229.77525,82.93726 -229.25274,84.95771 -228.21275,86.95102 C -227.86609,87.55769 -227.45859,88.11853 -227.02525,88.63852 C -224.68528,91.75849 -221.43522,93.32602 -217.27525,93.32602 C -215.71528,93.32602 -214.25567,93.06476 -212.869,92.54477 C -208.01574,90.72479 -205.32652,86.83722 -204.8065,80.85727 L -204.8065,66.01352 C -204.80653,64.626896 -205.40571,63.581877 -206.619,62.88852 C -207.139,62.541872 -207.68191,62.35727 -208.244,62.35727 z M -124.46275,62.35727 C -125.02484,62.35727 -125.6061,62.541872 -126.21275,62.88852 C -127.42609,63.581876 -128.02527,64.626897 -128.02525,66.01352 L -128.02525,80.85727 C -128.02527,81.89727 -128.24819,82.87271 -128.6815,83.82602 L -129.08775,84.48227 C -129.86776,85.78226 -131.32737,86.41978 -133.494,86.41977 C -134.44734,86.41978 -135.30777,86.30477 -136.08775,86.04477 C -136.95442,85.69811 -137.69985,84.95269 -138.3065,83.82602 C -138.73984,83.04604 -138.96276,82.0706 -138.96275,80.85727 L -138.96275,66.01352 C -138.96276,64.973559 -139.30068,64.113126 -139.994,63.41977 C -140.774,62.726474 -141.63443,62.388551 -142.58775,62.38852 C -143.10775,62.388551 -143.59193,62.503554 -144.02525,62.76352 C -145.32524,63.370211 -145.994,64.453565 -145.994,66.01352 L -145.994,80.85727 C -145.994,82.93726 -145.47149,84.95771 -144.4315,86.95102 C -144.08484,87.55769 -143.67733,88.11853 -143.244,88.63852 C -140.90403,91.75849 -137.65397,93.32602 -133.494,93.32602 C -131.93403,93.32602 -130.47442,93.06476 -129.08775,92.54477 C -124.23449,90.72479 -121.54527,86.83722 -121.02525,80.85727 L -121.02525,66.01352 C -121.02528,64.626896 -121.62446,63.581877 -122.83775,62.88852 C -123.35775,62.541872 -123.90066,62.35727 -124.46275,62.35727 z M -186.5565,63.04477 C -190.71647,63.0448 -193.88986,64.427744 -196.0565,67.20102 C -197.87649,69.45435 -198.77526,72.07399 -198.77525,75.10727 L -198.77525,89.95102 C -198.77525,90.38435 -198.69859,90.79894 -198.52525,91.23227 C -197.91859,92.61892 -196.87357,93.32602 -195.40025,93.32602 C -194.88026,93.32602 -194.46567,93.17977 -194.119,92.91977 C -192.73236,92.31311 -192.02527,91.33768 -192.02525,89.95102 L -192.02525,75.10727 C -192.02526,74.76063 -191.98692,74.38437 -191.90025,73.95102 C -191.2936,71.17774 -189.50316,69.79479 -186.5565,69.79477 C -183.08989,70.14146 -181.29236,71.90066 -181.119,75.10727 L -181.119,89.95102 C -181.11902,90.38435 -181.01111,90.79894 -180.83775,91.23227 C -180.31778,92.61892 -179.34234,93.32602 -177.869,93.32602 C -177.4357,93.32602 -176.95152,93.17977 -176.4315,92.91977 C -175.13154,92.31311 -174.49403,91.33768 -174.494,89.95102 L -174.494,75.10727 C -174.58069,73.8073 -174.73402,72.60894 -174.994,71.48227 C -176.46734,66.45568 -180.31659,63.65146 -186.5565,63.04477 z M -104.119,63.60727 C -108.74591,63.607268 -112.43149,67.29286 -112.4315,71.91977 C -112.4315,76.54669 -108.7459,80.26352 -104.119,80.26352 C -99.49207,80.26352 -95.8065,76.54669 -95.8065,71.91977 C -95.80651,67.29284 -99.49207,63.607271 -104.119,63.60727 z M -247.994,69.38852 C -246.95402,69.56188 -246.09359,69.89271 -245.40025,70.32602 C -243.40695,71.62603 -242.43152,74.13066 -242.4315,77.85727 C -242.43152,81.58391 -243.40696,84.12688 -245.40025,85.51352 C -246.26692,86.12019 -247.12736,86.48936 -247.994,86.57602 L -248.40025,86.57602 C -251.26024,86.57603 -252.90443,84.90058 -253.33775,81.60727 C -253.42444,80.82729 -253.46276,80.00519 -253.46275,79.13852 L -253.46275,74.85727 C -253.46277,72.77731 -252.86358,71.35603 -251.65025,70.57602 C -251.47695,70.48938 -251.21568,70.34313 -250.869,70.16977 C -249.9157,69.6498 -248.94734,69.38854 -247.994,69.38852 z M -46.33775,74.79477 C -47.733042,85.11496 -56.57452,93.07603 -67.27525,93.07602 C -70.104826,93.07602 -72.80793,92.52353 -75.27525,91.51352 L -81.869,102.95102 C -77.437325,105.04413 -72.49904,106.20102 -67.27525,106.20102 C -64.836076,106.20102 -62.44569,105.96737 -60.15025,105.48227 C -60.791898,100.99655 -58.71887,96.35416 -54.5565,93.95102 C -50.3973,91.54971 -45.36997,92.06437 -41.8065,94.85727 C -36.932841,89.44517 -33.75405,82.48231 -33.119,74.79477 L -46.33775,74.79477 z M -49.08775,95.51352 C -50.426781,95.54806 -51.74017,95.91463 -52.994,96.63852 C -57.001273,98.95212 -58.37051,104.00555 -56.0565,108.01352 C -53.74255,112.02141 -48.68836,113.35814 -44.6815,111.04477 C -40.674702,108.73144 -39.33725,103.676 -41.65025,99.66977 C -43.23989,96.91645 -46.13826,95.43742 -49.08775,95.51352 z"
       id="path2435"
       transform="matrix(1.569798,0,0,1.5692156,563.11594,-25.200091)" />
    <path
       style="fill:#33394d;fill-opacity:1;fill-rule:nonzero;stroke:#000000;stroke-width:1;stroke-miterlimit:4;stroke-dasharray:none;stroke-opacity:1;filter:url(#filter3853)"
       d="M 483.22139,21.400107 C 478.8983,21.571799 474.76371,23.866393 472.42294,27.919226 C 468.79098,34.207603 470.89627,42.149029 477.18518,45.778587 C 483.4742,49.408195 491.38935,47.27536 495.02085,40.987791 C 498.65233,34.70015 496.55019,26.789859 490.25858,23.158753 C 488.29032,22.022789 486.17271,21.454316 484.07072,21.400107 C 483.78132,21.392645 483.50961,21.388657 483.22139,21.400107 z M 487.6803,89.017037 C 485.48998,105.21164 471.5976,117.70118 454.79962,117.70117 C 450.35775,117.70117 446.11502,116.83006 442.24184,115.24512 L 431.86805,133.19546 C 438.82489,136.48001 446.59932,138.31978 454.79962,138.31978 C 458.62862,138.31978 462.35865,137.92879 465.96203,137.16757 C 464.95481,130.12851 468.22448,122.867 474.75857,119.09597 C 481.28767,115.3278 489.18426,116.13839 494.77818,120.52107 C 502.42884,112.02833 507.43103,101.08045 508.42791,89.017037 L 487.6803,89.017037 z"
       id="path3312" />
    <path
       style="fill:#606a87;fill-opacity:1;fill-rule:nonzero;stroke:#000000;stroke-width:1;stroke-miterlimit:4;stroke-dasharray:none;stroke-opacity:1;filter:url(#filter3849)"
       d="M 454.79962,30.739124 C 446.59793,30.739124 438.82609,32.577987 431.86805,35.863458 L 442.24184,53.813783 C 446.11502,52.228868 450.35775,51.357739 454.79962,51.357741 C 471.59524,51.357741 485.48695,63.850588 487.6803,80.041876 L 508.42791,80.041876 C 507.42969,67.981195 502.42739,57.05929 494.77818,48.568163 C 489.18437,52.949357 481.2868,53.760963 474.75857,49.993276 C 468.22581,46.222966 464.95671,38.959404 465.96203,31.921663 C 462.35865,31.160434 458.62864,30.739124 454.79962,30.739124 z M 396.95504,71.491214 C 389.69174,71.491212 383.88166,77.268829 383.88164,84.529456 C 383.88164,91.790082 389.69174,97.598017 396.95504,97.598019 C 404.21841,97.598021 409.99812,91.79009 409.99812,84.529456 C 409.9981,77.268811 404.21841,71.491216 396.95504,71.491214 z"
       id="path3314" />
    <path
       style="fill:#98a1b9;fill-opacity:1;fill-rule:nonzero;stroke:#000000;stroke-width:1;stroke-miterlimit:4;stroke-dasharray:none;stroke-opacity:1;filter:url(#filter3845)"
       d="M 424.10287,40.35104 C 414.57338,46.984143 407.29611,56.621275 403.62826,67.882955 C 410.22974,70.530692 414.88168,76.98764 414.8817,84.529456 C 414.8817,92.070935 410.22927,98.527997 403.62826,101.17596 C 407.2953,112.43989 414.5727,122.07341 424.10287,128.70788 L 434.47667,110.75754 C 426.65348,104.68747 421.61558,95.188386 421.61556,84.529456 C 421.61556,73.868548 426.65102,64.401606 434.47667,58.331687 L 424.10287,40.35104 z M 483.34273,121.552 C 481.24073,121.60621 479.15343,122.17471 477.18518,123.31064 C 470.89458,126.94119 468.79041,134.85032 472.42294,141.13969 C 476.05536,147.42894 483.96863,149.56065 490.25858,145.93048 C 496.54845,142.30037 498.65179,134.35777 495.02085,128.07113 C 492.52541,123.75058 487.97283,121.43259 483.34273,121.552 z"
       id="path3316" />
    <path
       style="font-size:40px;font-style:normal;font-variant:normal;font-weight:normal;font-stretch:normal;fill:#aadeff;fill-opacity:1;stroke:#3b4f6b;stroke-width:1;stroke-linecap:butt;stroke-linejoin:miter;stroke-miterlimit:4;stroke-dasharray:none;stroke-opacity:1;filter:url(#filter3841);font-family:Ubuntu-Title;-inkscape-font-specification:Ubuntu-Title"
       d="M 54.890996,69.552566 C 56.659608,69.552615 58.088113,70.232599 59.176502,71.592525 L 70.196374,85.260254 L 81.216247,71.592525 C 82.57669,69.960603 84.277292,69.280619 86.318036,69.552566 C 88.358704,69.960603 89.787206,71.116581 90.603541,73.020497 C 91.283736,74.924501 90.943628,76.692465 89.583186,78.324393 L 77.134811,93.828085 L 89.583186,109.12779 C 90.943628,110.75975 91.283736,112.59571 90.603541,114.63567 C 89.787206,116.53964 88.358704,117.6276 86.318036,117.89961 C 84.277292,118.3076 82.57669,117.69561 81.216247,116.06365 L 70.196374,102.39592 L 59.176502,116.06365 C 57.816007,117.69561 56.115428,118.3076 54.074708,117.89961 C 52.033992,117.6276 50.605492,116.53964 49.789204,114.63567 C 49.108956,112.59571 49.449093,110.75975 50.809563,109.12779 L 63.257935,93.828085 L 50.809563,78.324393 C 49.313028,76.556469 49.04095,74.652508 49.993276,72.612506 C 50.945602,70.572592 52.578176,69.552615 54.890996,69.552566 M 108.16327,69.552566 C 109.65979,69.552615 111.02025,70.096603 112.24471,71.184534 C 113.33307,72.272555 113.87726,73.632528 113.87729,75.264453 L 113.87729,98.519993 C 113.87726,100.42397 114.2174,101.98793 114.89765,103.2119 C 115.84997,104.97987 117.00637,106.13585 118.36686,106.67984 C 119.59126,107.08783 120.95174,107.29182 122.4483,107.29181 C 125.84945,107.29182 128.16228,106.27186 129.38674,104.23189 L 129.99894,103.2119 C 130.67914,101.71594 131.01928,100.15198 131.01931,98.519993 L 131.01931,75.264453 C 131.01928,73.08854 131.97161,71.456574 133.87631,70.368549 C 135.78094,69.280619 137.54955,69.280619 139.18218,70.368549 C 141.0868,71.456574 142.03912,73.08854 142.03918,75.264453 L 142.03918,98.519993 C 141.22283,107.90382 137.00537,114.02369 129.38674,116.87963 C 127.20995,117.69561 124.89713,118.1036 122.4483,118.1036 C 115.91798,118.1036 110.81618,115.65566 107.14292,110.75975 C 106.46267,109.94377 105.85046,109.0598 105.30628,108.1078 C 103.67371,104.97987 102.85741,101.78395 102.85741,98.519993 L 102.85741,75.264453 C 102.85741,72.816545 103.87778,71.116581 105.91849,70.164554 C 106.59872,69.75661 107.34699,69.552615 108.16327,69.552566 M 171.07475,118.1036 L 171.89105,118.1036 L 171.89105,118.1036 C 175.15616,117.96761 178.28525,116.87963 181.27834,114.83966 C 186.17601,111.57575 189.16908,106.20385 190.25749,98.723989 C 190.52954,97.228039 190.66559,95.596073 190.66564,93.828085 C 190.66559,85.260285 188.08069,78.800422 182.91092,74.448469 C 179.37364,71.320576 175.42827,69.75661 171.07475,69.756562 C 167.80958,70.1646 164.95258,70.844586 162.50374,71.796521 L 162.50374,56.496825 C 162.50372,54.864917 161.95954,53.572946 160.87117,52.620901 C 159.78278,51.396991 158.49032,50.785004 156.9938,50.784937 C 154.68098,50.785004 153.11645,51.87298 152.30017,54.048872 C 151.89202,54.728921 151.68795,55.544906 151.68795,56.496825 L 151.68795,95.868046 C 151.68795,105.52387 155.02111,112.25573 161.68746,116.06365 C 164.81655,117.69561 167.94562,118.37559 171.07475,118.1036 M 162.50374,95.868046 L 162.50374,89.136178 C 162.50372,85.872274 163.45607,83.62832 165.36074,82.404311 C 165.63283,82.268347 166.04097,82.064352 166.58517,81.792324 C 168.08169,80.976374 169.5782,80.568383 171.07475,80.568348 C 172.70731,80.840379 174.06777,81.316368 175.15619,81.996319 C 178.28525,84.036312 179.84981,87.98023 179.84983,93.828085 C 179.84981,99.675986 178.28525,103.68791 175.15619,105.86384 C 173.7957,106.81584 172.4352,107.35982 171.07475,107.4958 L 170.46254,107.4958 C 165.97293,107.49581 163.38804,104.91188 162.70782,99.743969 C 162.57174,98.52001 162.50372,97.228039 162.50374,95.868046 M 205.01763,69.552566 C 206.51412,69.552615 207.8746,70.096603 209.09906,71.184534 C 210.18742,72.272555 210.73162,73.632528 210.73163,75.264453 L 210.73163,98.519993 C 210.73162,100.42397 211.07173,101.98793 211.75199,103.2119 C 212.70432,104.97987 213.86071,106.13585 215.22121,106.67984 C 216.44561,107.08783 217.80607,107.29182 219.30265,107.29181 C 222.7038,107.29182 225.01662,106.27186 226.24106,104.23189 L 226.8533,103.2119 C 227.5335,101.71594 227.87361,100.15198 227.87366,98.519993 L 227.87366,75.264453 C 227.87361,73.08854 228.82595,71.456574 230.73065,70.368549 C 232.63529,69.280619 234.4039,69.280619 236.03652,70.368549 C 237.94115,71.456574 238.89348,73.08854 238.89352,75.264453 L 238.89352,98.519993 C 238.07719,107.90382 233.85972,114.02369 226.24106,116.87963 C 224.0643,117.69561 221.75146,118.1036 219.30265,118.1036 C 212.77233,118.1036 207.67053,115.65566 203.99727,110.75975 C 203.31701,109.94377 202.70479,109.0598 202.16061,108.1078 C 200.52805,104.97987 199.71176,101.78395 199.71176,98.519993 L 199.71176,75.264453 C 199.71176,72.816545 200.73211,71.116581 202.77282,70.164554 C 203.45305,69.75661 204.20133,69.552615 205.01763,69.552566 M 248.33822,89.54417 C 248.33822,84.784296 249.76671,80.636383 252.62372,77.100416 C 256.02491,72.748547 260.99063,70.572592 267.52095,70.572546 C 277.31636,71.524572 283.37049,75.944481 285.68333,83.832283 C 286.09141,85.600281 286.36352,87.504242 286.49963,89.54417 L 286.49963,112.7997 C 286.49958,114.97566 285.4792,116.53964 283.43854,117.49161 C 282.62222,117.89961 281.87395,118.1036 281.19375,118.1036 C 278.88091,118.1036 277.31636,117.01563 276.50011,114.83966 C 276.22798,114.15968 276.09194,113.47969 276.09196,112.7997 L 276.09196,89.54417 C 275.81983,84.512301 272.96283,81.724359 267.52095,81.180335 C 262.89531,81.180371 260.10635,83.356327 259.15402,87.708207 C 259.01793,88.388222 258.94991,89.00021 258.94995,89.54417 L 258.94995,112.7997 C 258.94991,114.97566 257.86155,116.53964 255.68479,117.49161 C 255.14059,117.89961 254.46037,118.1036 253.64408,118.1036 C 251.33124,118.1036 249.69868,117.01563 248.74636,114.83966 C 248.47426,114.15968 248.33822,113.47969 248.33822,112.7997 L 248.33822,89.54417 M 306.17184,50.376944 C 307.80439,50.377011 309.16484,50.921 310.25324,52.008913 C 311.3416,53.096955 311.81779,54.388928 311.68173,55.884835 L 311.68173,69.960557 L 318.41611,69.960557 C 320.59286,69.960603 322.22543,70.912584 323.31386,72.816501 C 324.40219,74.448513 324.40219,76.216473 323.31386,78.120397 C 322.22543,80.024395 320.59286,80.908378 318.41611,80.772343 L 311.68173,80.772343 L 311.68173,101.98792 C 311.68173,104.0279 312.02186,105.38788 312.70213,106.06785 C 313.11023,106.61184 313.79045,106.95184 314.74284,107.08782 C 315.83117,107.49581 317.19165,107.42783 318.82425,106.88383 C 321.00101,106.20385 322.90565,106.67985 324.53828,108.3118 C 325.89871,109.67178 326.30685,111.43974 325.76269,113.6157 C 325.21848,115.65566 323.92601,116.94763 321.88531,117.49161 L 318.00799,118.1036 C 312.02186,118.5116 307.53227,116.87963 304.53926,113.20771 C 302.09036,110.35176 300.86594,106.61184 300.86596,101.98792 L 300.86596,80.772343 L 297.60082,80.772343 C 295.42403,80.908378 293.85949,80.024395 292.90713,78.120397 C 291.81877,76.216473 291.81877,74.448513 292.90713,72.816501 C 293.85949,70.912584 295.42403,69.960603 297.60082,69.960557 L 300.86596,69.960557 L 300.86596,55.884835 C 300.86594,53.708945 301.81826,52.00898 303.72295,50.784937 C 304.53922,50.513008 305.35552,50.377011 306.17184,50.376944 M 336.54822,69.552566 C 338.0447,69.552615 339.40519,70.096603 340.62965,71.184534 C 341.71802,72.272555 342.26219,73.632528 342.26222,75.264453 L 342.26222,98.519993 C 342.26219,100.42397 342.60231,101.98793 343.28258,103.2119 C 344.23491,104.97987 345.3913,106.13585 346.7518,106.67984 C 347.97621,107.08783 349.33665,107.29182 350.83323,107.29181 C 354.2344,107.29182 356.54722,106.27186 357.77166,104.23189 L 358.38389,103.2119 C 359.06406,101.71594 359.40421,100.15198 359.40425,98.519993 L 359.40425,75.264453 C 359.40421,73.08854 360.35653,71.456574 362.26123,70.368549 C 364.16588,69.280619 365.93448,69.280619 367.56712,70.368549 C 369.47173,71.456574 370.42407,73.08854 370.42411,75.264453 L 370.42411,98.519993 C 369.60777,107.90382 365.39029,114.02369 357.77166,116.87963 C 355.59489,117.69561 353.28205,118.1036 350.83323,118.1036 C 344.30291,118.1036 339.20111,115.65566 335.52786,110.75975 C 334.8476,109.94377 334.23539,109.0598 333.6912,108.1078 C 332.05864,104.97987 331.24234,101.78395 331.24234,98.519993 L 331.24234,75.264453 C 331.24234,72.816545 332.2627,71.116581 334.30341,70.164554 C 334.98364,69.75661 335.73192,69.552615 336.54822,69.552566"
       id="flowRoot3328" />
  </g>
  <g
     inkscape:groupmode="layer"
     id="layer5"
     inkscape:label="Frame"
     style="display:inline"
     sodipodi:insensitive="true">
    <rect
       style="opacity:1;fill:none;fill-opacity:1;fill-rule:nonzero;stroke:#33394d;stroke-width:3;stroke-linecap:round;stroke-linejoin:round;stroke-miterlimit:4;stroke-dasharray:none;stroke-opacity:1;display:inline"
       id="rect2463"
       width="559.62524"
       height="419.99927"
       x="-0.00036639249"
       y="0.0010978881" />
  </g>
</svg>
