/* XPM */
static char * bottom_right_active_xpm[] = {
"24 8 3 1",
" 	c None",
".	c #F6F6F6 s active_color_2",
"+	c #000000 s active_color_1",
".......................+",
".......................+",
".......................+",
"++....................+ ",
"++++..................+ ",
"+++++................+  ",
"+++++++............++   ",
"+++++++++++++++++++     "};
