/* XPM */
static char * bottom_inactive_xpm[] = {
"5 8 3 1",
" 	c None",
".	c #F6F6F6 s inactive_color_2",
"+	c #555555",
".....",
".....",
"+++++",
"+++++",
"+++++",
"+++++",
"+++++",
"+++++"};
