/* XPM */
static char * hide_active_xpm[] = {
"15 27 3 1",
" 	c None",
".	c #555555",
"+	c #FFFFFF",
"...............",
"...............",
"...............",
"...............",
"...............",
"...............",
"...............",
"...............",
"...............",
"...............",
"...............",
"...+++++++++...",
"...+++++++++...",
"...............",
"...............",
"...............",
"...............",
"...............",
"...............",
"...............",
"               ",
"               ",
"               ",
"               ",
"               ",
"               ",
"               "};
