/* XPM */
static char * hide_active_xpm[] = {
"15 27 3 1",
" 	c None",
".	c #000000 s active_color_1",
"+	c #FFFFFF",
"...............",
"...............",
"...............",
"...............",
"...............",
"...............",
"...............",
"...............",
"...............",
"...............",
"...............",
"...+++++++++...",
"...+++++++++...",
"...............",
"...............",
"...............",
"...............",
"...............",
"...............",
"...............",
"               ",
"               ",
"               ",
"               ",
"               ",
"               ",
"               "};
