/* XPM */
static char * menu_inactive_xpm[] = {
"20 27 3 1",
"   c None",
".  c #808080",
"+  c #555555",
"                    ",
"                    ",
"       ......       ",
"     ..........     ",
"    ............    ",
"   ..............   ",
"  ................  ",
" .................. ",
" .................. ",
"....................",
"....................",
"....................",
"....................",
"....................",
"....................",
"+..................+",
"+..................+",
"++................++",
"+++..............+++",
"++++............++++",
" ++++..........++++ ",
"  +++++......+++++  ",
"   ++++++++++++++   ",
"     ++++++++++     ",
"                    ",
"                    ",
"                    "};
