/* XPM */
static char * shade_active_xpm[] = {
"14 27 3 1",
" 	c None",
".	c #555555",
"+	c #FFFFFF",
"..............",
"..............",
"..............",
"..............",
"..............",
"..............",
"..............",
"..............",
"......++......",
".....++++.....",
"....++++++....",
"...+++..+++...",
"..+++....+++..",
"..++......++..",
"..............",
"..............",
"..............",
"..............",
"..............",
"..............",
"              ",
"              ",
"              ",
"              ",
"              ",
"              ",
"              "};
