/* XPM */
static char * shade_toggled_active_xpm[] = {
"14 27 3 1",
" 	c None",
".	c #777777 s active_color_1",
"+	c #000000",
"..............",
"..............",
"..............",
"..............",
"..............",
"..............",
"..............",
"..............",
"..++......++..",
"..+++....+++..",
"...+++..+++...",
"....++++++....",
".....++++.....",
"......++......",
"..............",
"..............",
"..............",
"..............",
"..............",
"..............",
"              ",
"              ",
"              ",
"              ",
"              ",
"              ",
"              "};
