/* XPM */
static char * stick_active_xpm[] = {
"14 27 3 1",
" 	c None",
".	c #000000 s active_color_1",
"+	c #FFFFFF",
"..............",
"..............",
"..............",
"..............",
"..............",
"..............",
"..............",
"..............",
".....++++.....",
"....++++++....",
"...++....++...",
"...++....++...",
"...++....++...",
"...++....++...",
"....++++++....",
".....++++.....",
"..............",
"..............",
"..............",
"..............",
"              ",
"              ",
"              ",
"              ",
"              ",
"              ",
"              "};
