/* XPM */
static char * stick_toggled_active_xpm[] = {
"14 27 3 1",
" 	c None",
".	c #000000 s active_color_1",
"+	c #FFFFFF s active_color_2",
"..............",
"..............",
"..............",
"..............",
"..............",
"..............",
"..............",
"..............",
".....++++.....",
"....++++++....",
"...++++++++...",
"...++++++++...",
"...++++++++...",
"...++++++++...",
"....++++++....",
".....++++.....",
"..............",
"..............",
"..............",
"..............",
"              ",
"              ",
"              ",
"              ",
"              ",
"              ",
"              "};
