/* XPM */
static char * title_1_inactive_xpm[] = {
"5 27 3 1",
" 	c None",
".	c #555555",
"+	c #F6F6F6 s inactive_color_2",
".....",
".....",
".....",
".....",
".....",
".....",
".....",
".....",
".....",
".....",
".....",
".....",
".....",
".....",
".....",
".....",
".....",
".....",
".....",
".....",
"+++++",
"+++++",
"+++++",
"+++++",
"+++++",
"+++++",
"+++++"};
