/* XPM */
static char * title_4_inactive_xpm[] = {
"6 27 3 1",
" 	c None",
".	c #555555",
"+	c #FFFFFF s inactive_color_2",
"......",
"......",
"......",
"......",
"......",
"......",
"......",
"......",
"......",
"......",
"......",
"......",
"......",
"......",
"......",
"......",
"......",
"......",
"......",
"......",
"++++++",
"++++++",
"++++++",
"++++++",
"++++++",
"++++++",
"++++++"};
