/* XPM */
static char * title_2_inactive_xpm[] = {
"8 27 3 1",
" 	c None",
".	c #555555",
"+	c #F6F6F6 s inactive_color_2",
"........",
"........",
"........",
"........",
"........",
"........",
"........",
"........",
"........",
"........",
"........",
"........",
"........",
"........",
"........",
"........",
"........",
"........",
"........",
"........",
"++++++++",
"++++++++",
"++++++++",
"++++++++",
"++++++++",
"++++++++",
"++++++++"};
