/* XPM */
static char * title_3_inactive_xpm[] = {
"5 27 3 1",
" 	c None",
".	c #555555",
"+	c #FFFFFF s inactive_color_2",
".....",
".....",
".....",
".....",
".....",
".....",
".....",
".....",
".....",
".....",
".....",
".....",
".....",
".....",
".....",
".....",
".....",
".....",
".....",
".....",
"+++++",
"+++++",
"+++++",
"+++++",
"+++++",
"+++++",
"+++++"};
