/* XPM */
static char * title_3_active_xpm[] = {
"5 27 3 1",
" 	c None",
".	c #000000 s active_color_1",
"+	c #FFFFFF s active_color_2",
".....",
".....",
".....",
".....",
".....",
".....",
".....",
".....",
".....",
".....",
".....",
".....",
".....",
".....",
".....",
".....",
".....",
".....",
".....",
".....",
"+++++",
"+++++",
"+++++",
"+++++",
"+++++",
"+++++",
"+++++"};
