/* XPM */
static char * top_left_active_xpm[] = {
"24 27 3 1",
" 	c None",
".	c #000000 s active_color_1",
"+	c #F6F6F6 s active_color_2",
"       .................",
"     ...................",
"    ....................",
"   .....................",
"  ......................",
" .......................",
" .......................",
"........................",
"........................",
"........................",
"........................",
"........................",
"........................",
"........................",
"........................",
"........................",
"........................",
"........................",
"........................",
".+......................",
".++...................++",
".+++................++++",
".++++..............+++++",
".++++++..........+++++++",
".+++++++++++++++++++++++",
".+++++++++++++++++++++++",
".+++++++++++++++++++++++"};
