/* XPM */
static char * top_right_inactive_xpm[] = {
"24 27 3 1",
" 	c None",
".	c #555555",
"+	c #F6F6F6 s inactive_color_2",
".................       ",
"...................     ",
"....................    ",
".....................   ",
"......................  ",
"....................... ",
"....................... ",
"........................",
"........................",
"........................",
"........................",
"........................",
"........................",
"........................",
"........................",
"........................",
"........................",
"........................",
"........................",
"......................+.",
"++...................++.",
"++++................+++.",
"+++++..............++++.",
"+++++++..........++++++.",
"+++++++++++++++++++++++.",
"+++++++++++++++++++++++.",
"+++++++++++++++++++++++."};
